<?xml version="1.0" encoding="iso-8859-1"?>
<!-- Uploaded to: SVG Repo, www.svgrepo.com, Generator: SVG Repo Mixer Tools -->
<svg height="800px" width="800px" version="1.1" id="Layer_1" xmlns="http://www.w3.org/2000/svg" xmlns:xlink="http://www.w3.org/1999/xlink" 
	 viewBox="0 0 504.32 504.32" xml:space="preserve">
<g transform="translate(1 1)">
	<path style="fill:#FFD0A1;" d="M219.476,373.614c-9.387-3.413-18.773-7.68-26.453-13.653l-0.853,1.707v51.2
		c0,0,0,59.733,59.733,59.733s59.733-59.733,59.733-59.733l0,0v-51.2l-0.853-1.707c-7.68,5.12-16.213,10.24-26.453,13.653
		c9.387-3.413,18.773-7.68,26.453-13.653c23.893-16.213,38.4-39.253,43.52-49.493c8.533-17.067,25.6-68.267,25.6-68.267
		c9.387,0,17.067-7.68,17.067-17.067V191c0-9.387-7.68-17.067-17.067-17.067v-51.2c0,0-51.2,25.6-128,25.6s-128-25.6-128-25.6v51.2
		c-9.387,0-17.067,7.68-17.067,17.067v34.133c0,9.387,7.68,17.067,17.067,17.067c0,0,17.067,51.2,25.6,68.267
		c5.12,10.24,19.627,33.28,43.52,49.493C200.703,365.08,210.089,370.2,219.476,373.614z"/>
	<path style="fill:#80D6FA;" d="M251.903,472.6v25.6H4.436l8.533-34.133c8.533-25.6,42.667-51.2,179.2-51.2
		C192.169,412.867,192.169,472.6,251.903,472.6L251.903,472.6z M490.836,464.067l8.533,34.133H251.903v-25.6
		c59.733,0,59.733-59.733,59.733-59.733C431.103,412.867,483.156,440.174,490.836,464.067L490.836,464.067z"/>
	<path style="fill:#FFE079;" d="M448.169,71.534c0,0,17.067,17.067,17.067,34.133s-17.067,17.067-17.067,17.067
		s-17.067,0-17.067-17.067S448.169,71.534,448.169,71.534"/>
	<path style="fill:#AAB1BA;" d="M55.636,28.867l196.267-25.6l196.267,25.6L379.903,37.4l-128,17.067l-128-17.067L55.636,28.867z
		 M379.903,37.4v85.333c0,0-51.2,25.6-128,25.6s-128-25.6-128-25.6V37.4l128,17.067L379.903,37.4z"/>
	<path style="fill:#F2EDDA;" d="M175.103,208.067c0-9.387,7.68-17.067,17.067-17.067h34.133c9.387,0,17.067,7.68,17.067,17.067
		v8.533c0,14.507-11.093,25.6-25.6,25.6h-17.067c-14.507,0-25.6-11.093-25.6-25.6V208.067z M311.636,191
		c9.387,0,17.067,7.68,17.067,17.067v8.533c0,14.507-11.093,25.6-25.6,25.6h-17.067c-14.507,0-25.6-11.093-25.6-25.6v-8.533
		c0-9.387,7.68-17.067,17.067-17.067H311.636z"/>
</g>
<path style="fill:#51565F;" d="M500.369,503.467c-1.707,0-3.413-1.707-4.267-3.413l-8.533-34.133
	c-7.68-21.333-56.32-47.787-170.667-47.787c-1.707,14.507-10.24,59.733-64,59.733s-62.293-45.227-64-59.733
	c-104.107,0-160.427,16.213-171.52,48.64l-8.533,34.133c-0.853,2.56-2.56,3.413-5.12,3.413c-2.56-0.853-3.413-2.56-3.413-5.12
	l8.533-34.133c7.68-23.04,34.987-53.76,179.2-54.613V396.8c0-2.56,1.707-4.267,4.267-4.267s4.267,1.707,4.267,4.267v17.067
	c0,2.56,0.853,55.467,55.467,55.467s55.467-52.907,55.467-55.467l0,0l0,0V396.8c0-2.56,1.707-4.267,4.267-4.267
	s4.267,1.707,4.267,4.267v12.8c118.613,0,170.667,28.16,179.2,53.76l8.533,34.133c0.853,2.56-0.853,4.267-3.413,5.12
	C501.223,503.467,500.369,503.467,500.369,503.467z M252.903,384c-56.32,0-93.013-44.373-105.813-70.827
	c-7.68-15.36-21.333-55.467-24.747-66.56c-10.24-1.707-17.92-10.24-17.92-21.333v-34.133c0-10.24,7.68-18.773,17.067-20.48v-12.8
	c0-2.56,1.707-4.267,4.267-4.267s4.267,1.707,4.267,4.267v17.067c0,2.56-1.707,4.267-4.267,4.267c-6.827,0-12.8,5.973-12.8,12.8
	v34.133c0,6.827,5.973,12.8,12.8,12.8c1.707,0,3.413,0.853,4.267,2.56c0,0.853,17.067,51.2,25.6,67.413
	c1.707,2.56,33.28,65.707,98.987,65.707s97.28-63.147,98.987-65.707c8.533-16.213,25.6-67.413,25.6-67.413
	c0.853-1.707,2.56-2.56,4.267-2.56c6.827,0,12.8-5.973,12.8-12.8V192c0-6.827-5.973-12.8-12.8-12.8c-2.56,0-4.267-1.707-4.267-4.267
	v-17.067c0-2.56,1.707-4.267,4.267-4.267c2.56,0,4.267,1.707,4.267,4.267v13.653c9.387,1.707,17.067,10.24,17.067,20.48v34.133
	c0,11.093-7.68,19.627-17.92,21.333c-3.413,11.093-17.067,51.2-24.747,66.56C345.916,339.627,309.223,384,252.903,384z
	 M252.903,324.267c-18.773,0-28.16-9.387-29.013-9.387c-1.707-1.707-1.707-4.267,0-5.973c1.707-1.707,4.267-1.707,5.973,0l0,0
	c0,0,7.68,7.68,22.187,7.68c14.507,0,22.187-6.827,22.187-7.68c1.707-1.707,4.267-1.707,5.973,0c1.707,1.707,1.707,4.267,0,5.973
	C281.063,314.88,271.676,324.267,252.903,324.267z M304.103,247.467h-17.067c-16.213,0-29.867-13.653-29.867-29.867v-8.533
	c0-11.947,9.387-21.333,21.333-21.333h34.133c11.947,0,21.333,9.387,21.333,21.333l27.307-20.48
	c1.707-1.707,4.267-0.853,5.973,0.853c0.853,0.853,0.853,1.707,0.853,2.56c0,1.707-0.853,2.56-1.707,3.413l-32.427,24.747
	C333.116,235.52,319.463,247.467,304.103,247.467z M278.503,196.267c-6.827,0-12.8,5.973-12.8,12.8v8.533
	c0,11.947,9.387,21.333,21.333,21.333h17.067c11.947,0,21.333-9.387,21.333-21.333l0,0l0,0v-8.533c0-6.827-5.973-12.8-12.8-12.8
	H278.503z M218.769,247.467h-17.067c-15.36,0-29.013-11.947-29.867-27.307l-32.427-24.747c-0.853-0.853-1.707-1.707-1.707-3.413
	c0-0.853,0-1.707,0.853-2.56c1.707-1.707,4.267-2.56,5.973-0.853l27.307,20.48c0-11.947,9.387-21.333,21.333-21.333h34.133
	c11.947,0,21.333,9.387,21.333,21.333v8.533C248.636,233.814,234.982,247.467,218.769,247.467z M180.369,217.6
	c0,11.947,9.387,21.333,21.333,21.333h17.067c11.947,0,21.333-9.387,21.333-21.333v-8.533c0-6.827-5.973-12.8-12.8-12.8h-34.133
	c-6.827,0-12.8,5.973-12.8,12.8V217.6L180.369,217.6L180.369,217.6z M252.903,153.6c-76.8,0-128-24.747-129.707-26.453
	c-1.707-0.853-2.56-2.56-2.56-3.413V64c0-2.56,1.707-4.267,4.267-4.267c2.56,0,4.267,1.707,4.267,4.267v57.173
	c11.093,5.12,58.027,23.893,123.733,23.893s112.64-19.627,123.733-23.893V64c0-2.56,1.707-4.267,4.267-4.267
	s4.267,1.707,4.267,4.267v59.733c0,1.707-0.853,3.413-2.56,3.413C380.903,128.854,329.703,153.6,252.903,153.6z M449.169,128
	c-7.68,0-21.333-4.267-21.333-21.333c0-16.213,12.8-31.573,17.067-35.84v-35.84L253.756,59.733h-0.853l-196.267-25.6
	c-1.707,0-3.413-1.707-3.413-4.267s1.707-4.267,3.413-4.267L252.903,0h0.853l196.267,25.6c0.853,0,0.853,0,1.707,0.853l0,0l0,0
	c0,0,0.853,0,0.853,0.853l0,0l0,0c0.853,0.853,0.853,1.707,0.853,2.56l0,0l0,0l0,0l0,0l0,0l0,0l0,0l0,0l0,0l0,0v40.96
	c4.267,4.267,17.067,19.627,17.067,35.84C470.503,123.734,456.849,128,449.169,128z M449.169,78.507
	c-4.267,5.12-12.8,17.067-12.8,28.16c0,11.947,11.093,12.8,12.8,12.8c1.707,0,12.8-0.853,12.8-12.8
	C461.969,95.574,453.436,84.48,449.169,78.507z M89.916,29.867L252.903,51.2l162.987-21.333L252.903,8.534L89.916,29.867z"/>
</svg>